HIERARCHY
ROOT Hips
{
	OFFSET 0.00000 0.00000 0.00000
	CHANNELS 6 Xposition Yposition Zposition Zrotation Yrotation Xrotation 
	JOINT LHipJoint
	{
		OFFSET 0 0 0
		CHANNELS 3 Zrotation Yrotation Xrotation
		JOINT LeftHip
		{
			OFFSET 1.66553 -1.82942 0.76350
			CHANNELS 3 Zrotation Yrotation Xrotation
			JOINT LeftKnee
			{
				OFFSET 2.41740 -6.64177 0.00000
				CHANNELS 3 Zrotation Yrotation Xrotation
				JOINT LeftAnkle
				{
					OFFSET 2.71614 -7.46254 0.00000
					CHANNELS 3 Zrotation Yrotation Xrotation
					JOINT LeftToe
					{
						OFFSET 0.08005 -0.21993 1.82495
						CHANNELS 3 Zrotation Yrotation Xrotation
						End Site
						{
							OFFSET 0.00000 -0.00000 0.93441
						}
					}
				}
			}
		}
	}
	JOINT RHipJoint
	{
		OFFSET 0 0 0
		CHANNELS 3 Zrotation Yrotation Xrotation
		JOINT RightHip
		{
			OFFSET -1.63725 -1.82942 0.76350
			CHANNELS 3 Zrotation Yrotation Xrotation
			JOINT RightKnee
			{
				OFFSET -2.40538 -6.60872 0.00000
				CHANNELS 3 Zrotation Yrotation Xrotation
				JOINT RightAnkle
				{
					OFFSET -2.73312 -7.50919 0.00000
					CHANNELS 3 Zrotation Yrotation Xrotation
					JOINT RightToe
					{
						OFFSET -0.15567 -0.42769 1.93504
						CHANNELS 3 Zrotation Yrotation Xrotation
						End Site
						{
							OFFSET -0.00000 -0.00000 1.00100
						}
					}
				}
			}
		}
	}
	JOINT lowerback
	{
		OFFSET 0 0 0
		CHANNELS 3 Zrotation Yrotation Xrotation
		JOINT Chest
		{
			OFFSET 0.00326 2.30118 -0.13017
			CHANNELS 3 Zrotation Yrotation Xrotation
			JOINT Chest2
			{
				OFFSET 0.02887 2.30677 0.00834
				CHANNELS 3 Zrotation Yrotation Xrotation
				JOINT lowerneck
				{
					OFFSET 0 0 0
					CHANNELS 3 Zrotation Yrotation Xrotation
					JOINT Neck
					{
						OFFSET 0.12946 1.68326 0.00713
						CHANNELS 3 Zrotation Yrotation Xrotation
						JOINT Head
						{
							OFFSET -0.24364 1.67243 -0.16079
							CHANNELS 3 Zrotation Yrotation Xrotation
							End Site
							{
								OFFSET -0.09229 1.70819 -0.06383
							}
						}
					}
				}
				JOINT LeftCollar
				{
					OFFSET 0 0 0
					CHANNELS 3 Zrotation Yrotation Xrotation
					JOINT LeftShoulder
					{
						OFFSET 3.28104 0.69567 -0.00556
CHANNELS 3 Zrotation Xrotation Yrotation
						JOINT LeftElbow
						{
OFFSET 0 -5.707060 -0.000000
CHANNELS 3 Zrotation Xrotation Yrotation
							JOINT LeftWrist
							{
OFFSET 0 -3.332430 0.000000
CHANNELS 3 Zrotation Xrotation Yrotation
								JOINT lhand
								{
									OFFSET 0 0 0
CHANNELS 3 Zrotation Xrotation Yrotation
									JOINT LFingers
									{
OFFSET 0 -0.792690 0.000000
CHANNELS 3 Zrotation Xrotation Yrotation
										End Site
										{
OFFSET 0 -0.639090 0.000000
										}
									}
								}
								JOINT LThumb
								{
OFFSET 0 0.000000 0.000000
CHANNELS 3 Zrotation Xrotation Yrotation
									End Site
									{
OFFSET 0 -0.648840 0.648840
									}
								}
							}
						}
					}
				}
				JOINT RightCollar
				{
					OFFSET 0 0 0
					CHANNELS 3 Zrotation Yrotation Xrotation
					JOINT RightShoulder
					{
						OFFSET -3.40955 0.64424 0.14010
CHANNELS 3 Zrotation Xrotation Yrotation
						JOINT RightElbow
						{
OFFSET 0 -5.881760 -0.000000
CHANNELS 3 Zrotation Xrotation Yrotation
							JOINT RightWrist
							{
OFFSET 0 -3.281560 0.000000
CHANNELS 3 Zrotation Xrotation Yrotation
								JOINT rhand
								{
									OFFSET 0 0 0
CHANNELS 3 Zrotation Xrotation Yrotation
									JOINT RFingers
									{
OFFSET 0 -0.863130 0.000000
CHANNELS 3 Zrotation Xrotation Yrotation
										End Site
										{
OFFSET 0 -0.695870 0.000000
										}
									}
								}
								JOINT RThumb
								{
OFFSET 0 0.000000 0.000000
CHANNELS 3 Zrotation Xrotation Yrotation
									End Site
									{
OFFSET 0 -0.706500 0.706500
									}
								}
							}
						}
					}
				}
			}
		}
	}
}
MOTION
Frames: 9
Frame Time: 0.008333333333333333
2.806734 16.391570 -9.984179 -1.120220 4.765277 5.269565 0.000000 0.000000 0.000000 -16.087152 16.465718 -38.773333 9.407048 17.062646 57.487539 3.084702 -5.452163 -32.100123 0.121467 -2.239402 -6.168092 0.000000 0.000000 0.000000 25.753175 -13.285561 -37.880032 -9.206020 -16.938391 56.799771 -3.750022 -3.549673 -37.984828 -0.305983 -3.556311 9.831592 -0.584050 -2.693229 7.732235 0.309677 -3.729170 -9.570563 1.429462 -1.662648 -14.871640 12.678075 0.990640 -3.351181 -19.139154 0.387535 -5.183302 -8.033146 0.140049 -0.813646 0.000000 0.000000 0.000000 109.061359 8.733772 30.612417 63.306225 -57.127601 37.105576 -3.561150 -75.025094 -22.539851 0.000000 0.000000 0.000000 -7.125000 0.000000 0.000000 -31.679590 49.658640 3.998799 0.000000 0.000000 0.000000 -114.110496 -14.734791 -50.076329 -48.795230 -52.497355 -25.215344 -12.320292 -42.762920 -24.062070 0.000000 0.000000 0.000000 7.125000 0.000000 0.000000 10.455532 5.758061 9.517305
2.800314 16.564321 -10.003365 -1.504145 5.324097 6.193301 0.000000 0.000000 0.000000 -16.160209 15.471473 -38.624429 8.750557 16.644503 55.223303 3.061106 -4.693126 -32.089475 0.288468 -3.454128 -9.545756 0.000000 0.000000 0.000000 26.637452 -12.906607 -37.678599 -8.458056 -16.446003 54.196250 -3.511570 -4.207930 -37.064725 -0.334169 -3.715204 10.276670 -0.664765 -2.624325 8.339642 -0.178423 -3.713202 -9.288185 0.953503 -1.678925 -14.951274 12.763466 0.740369 -3.871571 -18.289426 -0.110786 -6.270793 -7.781529 -0.118793 -1.124925 0.000000 0.000000 0.000000 107.236575 10.642959 30.335471 68.150675 -58.116974 41.197605 -4.214897 -76.168179 -22.669902 0.000000 0.000000 0.000000 -7.125000 0.000000 0.000000 -32.333750 49.670178 4.108444 0.000000 0.000000 0.000000 -111.361601 -12.938772 -49.649741 -54.692907 -54.721379 -29.965144 -11.924011 -43.012664 -22.785556 0.000000 0.000000 0.000000 7.125000 0.000000 0.000000 10.654037 7.073908 9.429557
2.814235 16.659837 -10.064964 -1.622542 6.066221 7.164635 0.000000 0.000000 0.000000 -16.392777 13.615331 -39.030462 8.434063 16.429431 54.111526 3.030357 -7.510988 -31.561360 0.206724 -2.917673 -8.050238 0.000000 0.000000 0.000000 27.150086 -12.580480 -38.285872 -8.088595 -16.184024 52.881074 -3.340020 -4.447664 -36.295798 -0.406418 -4.088728 11.327023 -0.829593 -2.379048 9.327267 -0.750532 -3.476862 -8.524359 0.387350 -1.592208 -14.693891 12.732703 0.157017 -3.591250 -18.065213 -1.004147 -7.396127 -7.717482 -0.529217 -1.639721 0.000000 0.000000 0.000000 104.875202 12.649720 28.587831 74.689313 -59.094345 46.780947 3.408283 -73.537046 -24.176596 0.000000 0.000000 0.000000 -7.125000 0.000000 0.000000 -26.331336 52.205948 4.950786 0.000000 0.000000 0.000000 -109.411250 -11.026615 -49.118822 -60.611178 -56.469580 -34.850323 -16.221771 -44.465899 -21.081132 0.000000 0.000000 0.000000 7.125000 0.000000 0.000000 7.877835 8.273728 6.728818
2.852649 16.618379 -10.197225 -1.799717 6.970147 7.648625 0.000000 0.000000 0.000000 -16.235485 10.674122 -39.963832 8.745710 16.641149 55.206323 2.954916 -7.628803 -31.135486 0.271955 -3.354423 -9.267051 0.000000 0.000000 0.000000 27.295996 -11.936627 -39.691997 -8.343086 -16.365849 53.789138 -3.288898 -5.020127 -36.278217 -0.422237 -4.166652 11.546535 -0.673401 -2.200292 11.318404 -1.230832 -3.260435 -6.825949 -0.230610 -1.539084 -13.969097 11.990456 -0.375884 -3.917058 -17.095444 -1.844304 -8.725813 -7.278847 -0.931187 -2.098269 0.000000 0.000000 0.000000 99.905451 14.841489 26.829541 86.560669 -59.952450 57.021984 18.108306 -65.163835 -25.296088 0.000000 0.000000 0.000000 -7.125000 0.000000 0.000000 -12.535159 55.978339 3.409537 0.000000 0.000000 0.000000 -106.991956 -8.794630 -48.189645 -70.825797 -58.560586 -43.475213 -26.633498 -46.238594 -17.587661 0.000000 0.000000 0.000000 7.125000 0.000000 0.000000 0.879246 10.455339 0.705966
2.892535 16.494783 -10.337333 -2.332154 7.680091 8.022510 0.000000 0.000000 0.000000 -15.595185 9.354721 -42.443500 9.583913 17.169090 58.088201 2.643719 -7.401608 -29.389050 0.064671 -1.633904 -4.495083 0.000000 0.000000 0.000000 27.768112 -11.697741 -42.084187 -9.031250 -16.827794 56.198034 -3.290035 -5.645019 -36.561959 -0.325950 -3.668137 10.145116 -0.221510 -1.816260 14.191865 -1.670607 -2.728325 -5.729648 -1.024093 -1.346891 -14.508526 11.297094 -1.310801 -3.050363 -15.373230 -2.890316 -8.453249 -6.569861 -1.431389 -2.312788 0.000000 0.000000 0.000000 91.439548 16.754994 22.413875 98.506544 -59.724735 67.360092 22.708231 -58.094662 -22.124253 0.000000 0.000000 0.000000 -7.125000 0.000000 0.000000 -6.468714 53.648213 1.380025 0.000000 0.000000 0.000000 -101.437314 -5.483710 -42.151739 -80.476399 -59.654494 -51.761906 -39.303473 -42.782961 -19.969319 0.000000 0.000000 0.000000 7.125000 0.000000 0.000000 -6.817790 4.976901 -6.246062
2.938322 16.297653 -10.428198 -2.596299 9.182833 9.827469 0.000000 0.000000 0.000000 -15.402547 8.170870 -47.093979 10.678433 17.773981 61.732779 2.636205 -7.848359 -29.313094 0.229918 -3.084629 -8.514634 0.000000 0.000000 0.000000 27.997249 -11.504920 -46.917134 -10.305891 -17.578204 60.505782 -3.627052 -3.174526 -37.237580 -0.918334 -6.105569 17.091063 -0.817583 -1.853741 15.144242 -1.685591 -2.896822 -4.958103 -0.638439 -1.367677 -14.156924 10.118339 -2.283099 -3.244727 -12.718460 -3.908206 -6.951664 -5.493723 -1.982515 -1.935995 0.000000 0.000000 0.000000 80.345379 20.019989 15.239971 96.062485 -59.858112 65.247704 25.620903 -37.385471 -21.444734 0.000000 0.000000 0.000000 -7.125000 0.000000 0.000000 -3.250785 53.490399 0.678690 0.000000 0.000000 0.000000 -93.752320 -1.627437 -34.237164 -78.164077 -59.463348 -49.768341 -45.123334 -34.173464 -20.850343 0.000000 0.000000 0.000000 7.125000 0.000000 0.000000 -10.123322 2.002308 -9.921179
3.016633 16.127491 -10.495929 -3.282350 10.874139 10.900253 0.000000 0.000000 0.000000 -15.004419 8.029811 -50.848924 11.665286 18.245440 64.923619 2.543535 -10.427451 -28.711534 0.135822 -2.375648 -6.544960 0.000000 0.000000 0.000000 28.479622 -11.232082 -49.970879 -11.161951 -18.013331 63.306238 -3.740269 -3.687351 -37.989745 -0.673089 -5.246312 14.612431 -0.080679 -2.016644 16.866517 -1.999230 -3.003538 -4.162479 -1.333993 -1.491580 -14.334500 9.951798 -3.036508 -3.192678 -11.620314 -4.891904 -7.378042 -5.099357 -2.481477 -2.163517 0.000000 0.000000 0.000000 71.049809 22.416489 7.387012 73.017870 -58.866412 45.350407 31.767026 -20.266256 -25.185145 0.000000 0.000000 0.000000 -7.125000 0.000000 0.000000 2.497700 58.910540 -0.853333 0.000000 0.000000 0.000000 -84.311430 1.739118 -30.198397 -67.610123 -58.014265 -40.739555 -43.345268 -29.146514 -18.274022 0.000000 0.000000 0.000000 7.125000 0.000000 0.000000 -9.634961 5.847025 -8.730371
3.098625 16.047753 -10.506582 -3.594143 11.902005 12.016399 0.000000 0.000000 0.000000 -15.441990 8.797962 -53.672014 12.112443 18.437796 66.344852 2.383005 -12.585436 -27.889496 0.051338 -1.458171 -4.010589 0.000000 0.000000 0.000000 28.584912 -10.842449 -51.917959 -11.606554 -18.219333 64.736252 -3.734131 -4.075656 -38.110949 -0.527710 -4.655294 12.927948 -0.541718 -2.030409 17.058161 -2.174556 -3.119230 -3.270468 -1.236708 -1.514201 -13.392833 8.868659 -3.133079 -3.159389 -10.584081 -4.818663 -5.616999 -4.602224 -2.449164 -1.600398 0.000000 0.000000 0.000000 63.912476 22.713248 3.385141 44.422095 -50.476359 21.793742 35.224344 -8.978811 -27.153340 0.000000 0.000000 0.000000 -7.125000 0.000000 0.000000 6.279830 61.995241 -2.601434 0.000000 0.000000 0.000000 -74.363081 3.348361 -27.927386 -54.742323 -54.736979 -30.005640 -42.203104 -21.891796 -15.081046 0.000000 0.000000 0.000000 7.125000 0.000000 0.000000 -9.577459 10.208076 -7.841921
3.194326 16.095153 -10.476091 -4.201737 12.580048 12.614464 0.000000 0.000000 0.000000 -15.458890 8.966534 -54.345656 11.974684 18.379970 65.908610 2.295297 -13.410488 -27.462703 0.018850 -0.883059 -2.427130 0.000000 0.000000 0.000000 28.986960 -10.619906 -52.128712 -11.443514 -18.145346 64.213532 -3.593118 -4.627086 -37.641966 -0.367858 -3.895610 10.783098 -0.877735 -1.958945 17.033558 -2.566183 -3.114109 -2.507887 -1.488750 -1.506096 -12.504344 8.414101 -3.427483 -2.896506 -9.151135 -4.914427 -2.040346 -4.550763 -2.518611 -0.627158 0.000000 0.000000 0.000000 57.237109 22.162460 6.257586 28.348548 -39.430702 10.346011 35.179941 4.155197 -29.670536 0.000000 0.000000 0.000000 -7.125000 0.000000 0.000000 5.575415 64.775415 -2.672454 0.000000 0.000000 0.000000 -63.216454 4.646710 -24.612365 -43.749066 -50.136554 -21.275301 -39.788701 -17.208428 -13.465623 0.000000 0.000000 0.000000 7.125000 0.000000 0.000000 -8.320276 12.806672 -6.337823
